<svg width="24" height="24" viewBox="0 0 24 24" fill="none" xmlns="http://www.w3.org/2000/svg">
<path d="M7.91667 12H12V6.16667M1.5 12C1.5 13.3789 1.77159 14.7443 2.29926 16.0182C2.82694 17.2921 3.60036 18.4496 4.57538 19.4246C5.55039 20.3996 6.70791 21.1731 7.98182 21.7007C9.25574 22.2284 10.6211 22.5 12 22.5C13.3789 22.5 14.7443 22.2284 16.0182 21.7007C17.2921 21.1731 18.4496 20.3996 19.4246 19.4246C20.3996 18.4496 21.1731 17.2921 21.7007 16.0182C22.2284 14.7443 22.5 13.3789 22.5 12C22.5 10.6211 22.2284 9.25574 21.7007 7.98182C21.1731 6.70791 20.3996 5.55039 19.4246 4.57538C18.4496 3.60036 17.2921 2.82694 16.0182 2.29927C14.7443 1.77159 13.3789 1.5 12 1.5C10.6211 1.5 9.25574 1.77159 7.98182 2.29927C6.70791 2.82694 5.55039 3.60036 4.57538 4.57538C3.60036 5.55039 2.82694 6.70791 2.29926 7.98182C1.77159 9.25574 1.5 10.6211 1.5 12Z" stroke="#12132D" stroke-opacity="0.6" stroke-width="1.5" stroke-linecap="round" stroke-linejoin="round"/>
</svg>
