<svg width="24" height="16" viewBox="0 0 24 16" fill="none" xmlns="http://www.w3.org/2000/svg">
<path d="M9.66667 8C9.66667 8.61884 9.9125 9.21233 10.3501 9.64992C10.7877 10.0875 11.3812 10.3333 12 10.3333C12.6188 10.3333 13.2123 10.0875 13.6499 9.64992C14.0875 9.21233 14.3333 8.61884 14.3333 8C14.3333 7.38116 14.0875 6.78767 13.6499 6.35008C13.2123 5.9125 12.6188 5.66667 12 5.66667C11.3812 5.66667 10.7877 5.9125 10.3501 6.35008C9.9125 6.78767 9.66667 7.38116 9.66667 8Z" stroke="#12132D" stroke-opacity="0.6" stroke-width="1.5" stroke-linecap="round" stroke-linejoin="round"/>
<path d="M22.5 8C19.7 12.6667 16.2 15 12 15C7.8 15 4.3 12.6667 1.5 8C4.3 3.33333 7.8 1 12 1C16.2 1 19.7 3.33333 22.5 8Z" stroke="#12132D" stroke-opacity="0.6" stroke-width="1.5" stroke-linecap="round" stroke-linejoin="round"/>
</svg>
