<svg width="24" height="23" viewBox="0 0 24 23" fill="none" xmlns="http://www.w3.org/2000/svg">
<path d="M7.33333 7.49996H16.6667M7.33333 12.1666H14.3333M8.5 18H5C4.07174 18 3.1815 17.6312 2.52513 16.9748C1.86875 16.3185 1.5 15.4282 1.5 14.5V5.16663C1.5 4.23837 1.86875 3.34813 2.52513 2.69175C3.1815 2.03538 4.07174 1.66663 5 1.66663H19C19.9283 1.66663 20.8185 2.03538 21.4749 2.69175C22.1313 3.34813 22.5 4.23837 22.5 5.16663V14.5C22.5 15.4282 22.1313 16.3185 21.4749 16.9748C20.8185 17.6312 19.9283 18 19 18H15.5L12 21.5L8.5 18Z" stroke="#12132D" stroke-opacity="0.6" stroke-width="1.5" stroke-linecap="round" stroke-linejoin="round"/>
</svg>
